<?xml version="1.0" encoding="utf-8"?>
<!-- Generator: Adobe Illustrator 25.2.1, SVG Export Plug-In . SVG Version: 6.00 Build 0)  -->
<svg version="1.1" id="Layer_1" xmlns="http://www.w3.org/2000/svg" xmlns:xlink="http://www.w3.org/1999/xlink" x="0px" y="0px"
	 viewBox="0 0 146 234" style="enable-background:new 0 0 146 234;" xml:space="preserve">
<style type="text/css">
	.st0{fill-rule:evenodd;clip-rule:evenodd;fill:#FFFFFF;}
	.st1{filter:url(#Adobe_OpacityMaskFilter);}
	.st2{mask:url(#mask-2_1_);fill-rule:evenodd;clip-rule:evenodd;fill:#FFFFFF;}
	.st3{filter:url(#Adobe_OpacityMaskFilter_1_);}
	.st4{mask:url(#mask-4_1_);fill-rule:evenodd;clip-rule:evenodd;fill:#FFFFFF;}
</style>
<g id="Page-2">
	<g id="logo-copy-17">
		<polygon id="Fill-1" class="st0" points="81.1,118.3 85.2,215.9 84.7,215.9 70.8,92 44,92 44,234 61.9,234 61.6,207.7 57.9,110.1 
			58.4,110.1 72.2,234 99,234 99,92 80.9,92 		"/>
		<g id="Group-4" transform="translate(104.000000, 0.000000)">
			<g id="Clip-3">
			</g>
			<defs>
				<filter id="Adobe_OpacityMaskFilter" filterUnits="userSpaceOnUse" x="0" y="0" width="42" height="234">
					<feColorMatrix  type="matrix" values="1 0 0 0 0  0 1 0 0 0  0 0 1 0 0  0 0 0 1 0"/>
				</filter>
			</defs>
			<mask maskUnits="userSpaceOnUse" x="0" y="0" width="42" height="234" id="mask-2_1_">
				<g class="st1">
					<polygon id="path-1_1_" class="st0" points="0,0 42,0 42,234 0,234 					"/>
				</g>
			</mask>
			<path id="Fill-2" class="st2" d="M24.8,208.4c0,2.7-0.2,3.5-0.3,4c-0.1,0.5-0.3,1.1-0.6,1.4c-0.3,0.4-0.5,0.6-0.8,0.9
				c-0.3,0.3-0.8,0.5-1.3,0.6c-0.5,0.1-0.8,0.2-1.8,0.2h-2.6l0.5-5.3V23.7l-0.5-5.3H20c1,0,1.4,0,1.8,0.2c0.5,0.1,1,0.4,1.3,0.6
				c0.3,0.3,0.5,0.5,0.8,0.9c0.3,0.4,0.5,0.9,0.6,1.4c0.1,0.6,0.3,1.4,0.3,4V208.4z M22.5,0H0v234h22.5c11.2,0,19.5-8.3,19.5-19V19
				C42,8.2,33.7,0,22.5,0L22.5,0z"/>
		</g>
		<g id="Group-7" transform="translate(0.000000, 146.000000)">
			<g id="Clip-6">
			</g>
			<defs>
				<filter id="Adobe_OpacityMaskFilter_1_" filterUnits="userSpaceOnUse" x="0" y="0" width="42" height="88">
					<feColorMatrix  type="matrix" values="1 0 0 0 0  0 1 0 0 0  0 0 1 0 0  0 0 0 1 0"/>
				</filter>
			</defs>
			<mask maskUnits="userSpaceOnUse" x="0" y="0" width="42" height="88" id="mask-4_1_">
				<g class="st3">
					<polygon id="path-3_1_" class="st0" points="0,0 42,0 42,88 0,88 					"/>
				</g>
			</mask>
			<path id="Fill-5" class="st4" d="M17.4,62.2l3.3-47.7h0.5l3.3,47.7H17.4z M8,0L0,88h15.6l0.9-12.9h9L26.4,88H42L34,0H8z"/>
		</g>
	</g>
</g>
</svg>
