<?xml version="1.0" encoding="UTF-8"?>
<svg width="173px" height="241px" viewBox="0 0 173 241" version="1.1" xmlns="http://www.w3.org/2000/svg" xmlns:xlink="http://www.w3.org/1999/xlink">
    <title>Group 9 Copy 4</title>
    <g id="Page-2" stroke="none" stroke-width="1" fill="none" fill-rule="evenodd">
        <g id="Group-9-Copy-4" transform="translate(-0.000172, 0.838875)" fill="#FFFFFF">
            <g id="Group-3" transform="translate(133.623447, 0.000000)">
                <path d="M23.5228534,226.97308 C23.9427125,226.591197 24.3062752,226.112875 24.6105334,225.539836 C24.9165106,224.966796 25.1649022,224.278374 25.3539892,223.47586 C25.5460844,222.673346 25.680594,221.737368 25.7545098,220.66534 C25.8314339,219.596327 25.869681,218.41193 25.869681,217.110429 L25.869681,91.9668622 C25.869681,90.667944 25.8314339,89.4835476 25.7545098,88.4119508 C25.680594,87.3425067 25.5460844,86.3875844 25.3539892,85.5450312 C25.1649022,84.7046307 24.9165106,83.9972649 24.6105334,83.4233644 C24.3062752,82.8503249 23.9427125,82.3732943 23.5228534,81.9901199 C23.1042835,81.6082371 22.5898809,81.321502 21.9783563,81.1299148 C21.368121,80.9400498 20.7192088,80.8431798 20.0320494,80.8431798 C19.34489,80.8431798 18.7153162,80.9202452 18.1433281,81.0726539 C17.5713399,81.2267848 17.0758459,81.4941458 16.6551274,81.8755981 C16.2365575,82.2587725 15.854086,82.7358031 15.511151,83.3088426 C15.1669267,83.8823126 14.9004859,84.5703044 14.7083907,85.372818 C14.5193037,86.1757622 14.3654556,87.1130326 14.2515737,88.1829072 C14.1364025,89.2540735 14.0801061,90.4384699 14.0801061,91.7378186 L14.0801061,217.339903 C14.0801061,218.641404 14.1364025,219.825801 14.2515737,220.895245 C14.3654556,221.966842 14.5193037,222.884738 14.7083907,223.647643 C14.9004859,224.4127 15.1669267,225.080887 15.511151,225.653927 C15.854086,226.228258 16.2365575,226.70658 16.6551274,227.088463 C17.0758459,227.471637 17.5713399,227.757511 18.1433281,227.947376 C18.7153162,228.139825 19.34489,228.234542 20.0320494,228.234542 C20.7192088,228.234542 21.368121,228.120451 21.9783563,227.890977 C22.5898809,227.661502 23.1042835,227.356254 23.5228534,226.97308 Z M6.29616758,237.867719 C5.22739625,237.103523 4.31247299,236.147309 3.54881932,235.00123 C2.78731438,233.853429 2.13711292,232.477876 1.60251238,230.871557 C1.07006056,229.26653 0.669539902,227.451402 0.40052066,225.425744 C0.134509621,223.400086 0,221.164328 0,218.716748 L0,90.361835 C0,87.9155462 0.134509621,85.6599836 0.40052066,83.5951471 C0.669539902,81.5311716 1.07006056,79.7164748 1.60251238,78.1484735 C2.13711292,76.5826248 2.78731438,75.2062106 3.54881932,74.0196615 C4.31247299,72.8352651 5.22739625,71.8807734 6.29616758,71.1531725 C7.3657984,70.4277243 8.54845168,69.8736283 9.84455717,69.4904539 C11.1436709,69.1085711 12.5536583,68.9169839 14.0801061,68.9169839 C15.7591128,68.9169839 17.2271156,69.1283756 18.4862631,69.5477148 C19.7454107,69.9687761 20.8524292,70.5047897 21.8055996,71.1531725 C22.7613484,71.8032774 23.5623898,72.5687652 24.2100128,73.4466221 C24.858925,74.3262011 25.3746168,75.224293 25.7545098,76.1417589 L25.7545098,0 L39.3765097,0 L39.3765097,238.670232 L25.7545098,238.670232 L25.7545098,232.821441 C25.3746168,233.816403 24.858925,234.733008 24.2100128,235.574269 C23.5623898,236.416392 22.7613484,237.179296 21.8055996,237.867719 C20.8524292,238.556141 19.7454107,239.109807 18.4862631,239.530437 C17.2271156,239.949777 15.7591128,240.161168 14.0801061,240.161168 C12.4767342,240.161168 11.0461191,239.96872 9.78697158,239.588129 C8.52782401,239.204954 7.3657984,238.632776 6.29616758,237.867719 Z" id="Fill-1"></path>
            </g>
            <polygon id="Fill-4" points="111.308817 238.098011 125.322313 238.098011 125.322313 64.6964764 111.308817 64.6964764"></polygon>
            <path d="M90.1164609,238.312416 L104.575171,238.312416 L104.575171,124.734411 L90.1164609,124.734411 L90.1164609,238.312416 Z M90.1164609,110.014239 L104.575171,110.014239 L104.575171,90.361835 L90.1164609,90.361835 L90.1164609,110.014239 Z" id="Fill-6"></path>
            <path d="M69.7416913,238.430426 L69.7416913,232.801206 C69.2642466,233.760003 68.6871015,234.676608 68.0089667,235.556187 C67.3334104,236.433183 66.4962707,237.190921 65.498407,237.831554 C64.502692,238.468743 63.3677402,238.987966 62.0918326,239.387931 C60.8185035,239.786605 59.3431952,239.986802 57.6693454,239.986802 C55.3594757,239.986802 53.365897,239.607503 51.6920473,238.849765 C50.0194867,238.089443 48.6258296,236.952406 47.508927,235.435638 C46.3941731,233.91887 45.5776611,231.981902 45.0581015,229.628177 C44.5411205,227.27187 44.2815556,224.378257 44.2815556,220.946478 L44.2815556,149.667661 L58.3861571,149.667661 L58.3861571,218.789938 C58.3861571,220.305415 58.4871467,221.623276 58.6852583,222.742232 C58.8850889,223.859035 59.2228671,224.778223 59.701601,225.496352 C60.1786159,226.215342 60.7776779,226.733273 61.4944896,227.05402 C62.2121607,227.371754 63.0888369,227.531912 64.1240882,227.531912 C65.1606288,227.531912 66.0179665,227.371754 66.6935228,227.05402 C67.3716576,226.733273 67.9488027,226.215342 68.4275366,225.496352 C68.9049813,224.778223 69.2453379,223.859035 69.4434495,222.742232 C69.6432801,221.623276 69.7416913,220.305415 69.7416913,218.789938 L69.7416913,149.667661 L83.9661911,149.667661 L83.9661911,238.430426 L69.7416913,238.430426 Z" id="Fill-7"></path>
            <path d="M23.8657885,225.535961 C24.2100128,224.962921 24.4760238,224.294734 24.668119,223.529677 C24.8576358,222.766772 25.0110541,221.848876 25.124936,220.777279 C25.2401072,219.707835 25.2976928,218.523438 25.2976928,217.221937 L25.2976928,193.599237 C25.2976928,192.30075 25.2401072,191.115923 25.124936,190.044326 C25.0110541,188.975312 24.8576358,188.038042 24.668119,187.235528 C24.4760238,186.433015 24.2100128,185.744592 23.8657885,185.171553 C23.5228534,184.597222 23.1403819,184.120191 22.7218121,183.737017 C22.3006637,183.355995 21.8055996,183.088203 21.2336114,182.934503 C20.6616232,182.781664 20.0320494,182.705029 19.34489,182.705029 C18.6590199,182.705029 18.0088184,182.80233 17.3985831,182.992195 C16.7866288,183.184212 16.2722262,183.470086 15.854086,183.8524 C15.4342269,184.235574 15.0706642,184.712605 14.7659763,185.285644 C14.4604288,185.858684 14.2120373,186.56648 14.0225205,187.407311 C13.8308551,188.249434 13.6963454,189.204786 13.6219999,190.2738 C13.5455056,191.345827 13.5068287,192.530224 13.5068287,193.828711 L13.5068287,216.992463 C13.5068287,218.293964 13.5455056,219.478361 13.6219999,220.547805 C13.6963454,221.619402 13.8308551,222.55538 14.0225205,223.357894 C14.2120373,224.160408 14.4604288,224.84883 14.7659763,225.421869 C15.0706642,225.994909 15.4342269,226.473231 15.854086,226.855114 C16.2722262,227.238288 16.7866288,227.543536 17.3985831,227.77301 C18.0088184,228.002485 18.6590199,228.116576 19.34489,228.116576 C20.0320494,228.116576 20.6616232,228.021859 21.2336114,227.82941 C21.8055996,227.639545 22.3006637,227.353671 22.7218121,226.970497 C23.1403819,226.588614 23.5228534,226.110292 23.8657885,225.535961 Z M15.1664969,235.456303 C14.5180144,234.615042 14.0023226,233.698437 13.6219999,232.703475 L13.6219999,238.552266 L0,238.552266 L0,142.708609 L13.6219999,142.708609 L13.6219999,178.003608 C14.0023226,177.085712 14.5180144,176.188481 15.1664969,175.308902 C15.8141199,174.430614 16.6151612,173.665557 17.5713399,173.015452 C18.5245103,172.366639 19.6315287,171.830625 20.8906763,171.409133 C22.1498239,170.989794 23.6173969,170.778403 25.2976928,170.778403 C26.8232812,170.778403 28.2332686,170.97042 29.5323823,171.352734 C30.8284878,171.735908 32.0120005,172.289574 33.0807718,173.015452 C34.1491134,173.742192 35.0640367,174.697545 35.8281201,175.881941 C36.5896251,177.067629 37.2393968,178.444905 37.7744271,180.009892 C38.3068789,181.577894 38.7073995,183.393451 38.975989,185.457427 C39.2424298,187.521402 39.3765097,189.777826 39.3765097,192.223684 L39.3765097,218.598782 C39.3765097,221.046362 39.2424298,223.28212 38.975989,225.307778 C38.7073995,227.333436 38.3068789,229.148564 37.7744271,230.753591 C37.2393968,232.35991 36.5896251,233.735893 35.8281201,234.883264 C35.0640367,236.029343 34.1491134,236.985557 33.0807718,237.749753 C32.0120005,238.51481 30.8491154,239.086988 29.5899679,239.470163 C28.3303905,239.850754 26.8997754,240.043202 25.2976928,240.043202 C23.6173969,240.043202 22.1498239,239.831811 20.8906763,239.412471 C19.6315287,238.991841 18.5245103,238.438175 17.5713399,237.749753 C16.6151612,237.06133 15.8141199,236.298426 15.1664969,235.456303 Z" id="Fill-8"></path>
        </g>
    </g>
</svg>