<?xml version="1.0" encoding="utf-8"?>
<!-- Generator: Adobe Illustrator 25.2.1, SVG Export Plug-In . SVG Version: 6.00 Build 0)  -->
<svg version="1.1" id="Layer_1" xmlns="http://www.w3.org/2000/svg" xmlns:xlink="http://www.w3.org/1999/xlink" x="0px" y="0px"
	 viewBox="0 0 180 277" style="enable-background:new 0 0 180 277;" xml:space="preserve">
<style type="text/css">
	.st0{fill-rule:evenodd;clip-rule:evenodd;fill:#FFFFFF;}
</style>
<g id="Page-2">
	<g id="Group-9-Copy-10">
		<polygon id="Fill-1" class="st0" points="167.1,0 162.6,214.5 162.4,214.5 156.1,0 137.7,0 131.6,214.5 131.4,214.5 126.9,0 
			114,0 122,242 140.3,242 147.1,38.3 153.7,242 172.1,242 180,0 		"/>
		<g id="Group-8" transform="translate(0.000000, 50.000000)">
			<path id="Fill-2" class="st0" d="M20.2,183.2c0.5-0.2,1-0.4,1.4-0.8c0.4-0.3,0.8-0.8,1.1-1.3c0.3-0.5,0.5-1.2,0.7-1.9
				c0.2-0.8,0.3-1.6,0.4-2.6c0.1-0.9,0.2-2,0.2-3.2v-72.1c0-1.2-0.1-2.3-0.2-3.2c-0.1-1-0.2-1.8-0.4-2.6c-0.2-0.7-0.4-1.4-0.7-1.9
				c-0.3-0.6-0.6-1-1.1-1.4c-0.4-0.3-0.9-0.6-1.4-0.7c-0.5-0.1-1.1-0.2-1.8-0.2c-0.6,0-1.2,0.1-1.7,0.2c-0.5,0.1-1,0.4-1.4,0.7
				c-0.4,0.3-0.8,0.7-1.1,1.3c-0.3,0.5-0.5,1.2-0.6,1.9c-0.1,0.7-0.3,1.6-0.4,2.6c-0.1,1-0.2,2.1-0.2,3.2v72.5
				c0,1.2,0.1,2.3,0.2,3.2c0.1,0.9,0.2,1.8,0.4,2.5c0.1,0.7,0.4,1.4,0.6,1.9c0.3,0.5,0.6,1,1.1,1.3c0.4,0.4,0.9,0.6,1.4,0.7
				c0.5,0.1,1.1,0.2,1.7,0.2C19.1,183.4,19.7,183.4,20.2,183.2 M8.9,193.8c-1.2-0.3-2.3-0.9-3.3-1.6c-1-0.7-1.8-1.6-2.5-2.6
				c-0.7-1-1.3-2.3-1.7-3.8c-0.5-1.5-0.8-3.1-1.1-4.9c-0.2-1.8-0.4-3.9-0.4-6.2v-75c0-2.3,0.1-4.4,0.4-6.2c0.2-1.8,0.6-3.5,1.1-4.9
				c0.5-1.4,1-2.7,1.7-3.7c0.7-1,1.5-1.9,2.5-2.6c0.9-0.7,2-1.2,3.3-1.5c1.2-0.3,2.5-0.5,4-0.5c1.5,0,2.8,0.2,4,0.5
				c1.2,0.4,2.2,0.8,3.1,1.4c0.9,0.6,1.6,1.3,2.3,2.1c0.6,0.8,1.1,1.6,1.5,2.5v-5.1h12.5v125c0,2.6-0.1,4.9-0.4,6.8
				c-0.3,2-0.8,3.7-1.5,5.2c-0.7,1.5-1.5,2.8-2.4,3.9c-0.9,1-2,1.9-3.4,2.5c-1.3,0.6-2.9,1.1-4.6,1.4c-1.7,0.3-3.6,0.5-5.6,0.5
				c-3.1,0-5.7-0.3-7.9-1c-2.2-0.7-4-1.7-5.3-3.1c-1.4-1.4-2.4-3.1-3.1-5.2c-0.7-2.1-1-4.6-1-7.6v-10h12.5v10c0,1.1,0.1,2.1,0.3,2.8
				c0.2,0.8,0.5,1.4,0.9,1.9c0.4,0.5,1,0.9,1.6,1.1c0.6,0.2,1.4,0.4,2.2,0.4c0.6,0,1.2-0.1,1.7-0.2c0.5-0.1,0.9-0.3,1.4-0.5
				c0.4-0.2,0.8-0.6,1.1-1c0.3-0.5,0.5-1,0.7-1.6c0.2-0.6,0.3-1.3,0.4-2c0.1-0.8,0.2-1.7,0.2-2.8v-20.3c-0.4,0.9-0.8,1.7-1.5,2.5
				c-0.6,0.8-1.4,1.4-2.3,2c-0.9,0.6-1.9,1.1-3.1,1.5c-1.2,0.4-2.5,0.6-4,0.6C11.5,194.3,10.2,194.2,8.9,193.8"/>
			<path id="Fill-4" class="st0" d="M94.1,182.9c0.6-0.4,1.2-1,1.5-1.7c0.4-0.7,0.6-1.6,0.8-2.8c0.2-1.1,0.3-2.5,0.3-3.9V19.6
				c0-1.5-0.1-2.8-0.3-3.9c-0.2-1.1-0.4-2.1-0.8-2.9c-0.4-0.8-0.9-1.3-1.5-1.7c-0.6-0.4-1.5-0.6-2.7-0.6c-1,0-1.9,0.2-2.6,0.6
				c-0.7,0.4-1.3,1-1.6,1.7c-0.4,0.7-0.6,1.7-0.8,2.8c-0.1,1.1-0.2,2.5-0.2,3.9v154.9c0,1.5,0.1,2.8,0.2,3.9
				c0.1,1.1,0.4,2.1,0.8,2.8c0.4,0.7,0.9,1.3,1.6,1.7c0.7,0.4,1.6,0.6,2.6,0.6C92.5,183.5,93.4,183.3,94.1,182.9 M83.1,192.8
				c-2.2-0.7-4.1-1.9-5.4-3.6c-1.4-1.6-2.4-3.7-3-6.1c-0.6-2.4-0.9-5.4-0.9-8.9V19.8c0-3.4,0.3-6.4,0.9-8.8c0.6-2.5,1.6-4.5,3-6.1
				c1.4-1.6,3.2-2.8,5.4-3.6c2.2-0.8,5-1.2,8.2-1.2c3.3,0,6.1,0.4,8.3,1.2c2.2,0.8,4,2,5.4,3.6c1.4,1.6,2.3,3.7,3,6.1
				c0.6,2.5,0.9,5.4,0.9,8.8v154.4c0,3.5-0.3,6.5-0.9,8.9c-0.6,2.4-1.6,4.5-3,6.1c-1.4,1.7-3.2,2.8-5.4,3.6c-2.2,0.7-5,1.1-8.3,1.1
				C88.1,193.9,85.4,193.6,83.1,192.8"/>
			<path id="Fill-6" class="st0" d="M44.1,47.6h12.3v7.9c0.3-1.2,0.9-2.4,1.6-3.4c0.7-1,1.5-1.9,2.4-2.6c0.9-0.8,2-1.4,3.3-1.8
				c1.2-0.4,2.7-0.7,4.3-0.7h1.5v12.3h-2.9c-1.9,0-3.5,0.2-4.8,0.6c-1.2,0.4-2.3,1-3.1,1.9c-0.8,0.9-1.4,2-1.7,3.4
				c-0.3,1.3-0.5,3-0.5,5v122.3H44.1V47.6z"/>
		</g>
	</g>
</g>
</svg>
