<?xml version="1.0" encoding="utf-8"?>
<!-- Generator: Adobe Illustrator 25.2.1, SVG Export Plug-In . SVG Version: 6.00 Build 0)  -->
<svg version="1.1" id="Layer_1" xmlns="http://www.w3.org/2000/svg" xmlns:xlink="http://www.w3.org/1999/xlink" x="0px" y="0px"
	 viewBox="0 0 21 15" style="enable-background:new 0 0 21 15;" xml:space="preserve">
<style type="text/css">
	.st0{fill-rule:evenodd;clip-rule:evenodd;fill:#FFFFFF;}
	.st1{filter:url(#Adobe_OpacityMaskFilter);}
	.st2{mask:url(#mask-2_1_);fill-rule:evenodd;clip-rule:evenodd;fill:#FFFFFF;}
</style>
<g id="Page-2">
	<g id="Group-8">
		<path id="Fill-1" class="st0" d="M13,5.5C13,6.9,11.9,8,10.5,8S8,6.9,8,5.5S9.1,3,10.5,3S13,4.1,13,5.5"/>
		<path id="Fill-3" class="st0" d="M5,14c0-2.8,2.5-5,5.5-5s5.5,2.2,5.5,5"/>
		<g id="Group-7">
			<g id="Clip-6">
			</g>
			<defs>
				<filter id="Adobe_OpacityMaskFilter" filterUnits="userSpaceOnUse" x="0" y="0" width="21" height="15">
					<feColorMatrix  type="matrix" values="1 0 0 0 0  0 1 0 0 0  0 0 1 0 0  0 0 0 1 0"/>
				</filter>
			</defs>
			<mask maskUnits="userSpaceOnUse" x="0" y="0" width="21" height="15" id="mask-2_1_">
				<g class="st1">
					<polygon id="path-1_1_" class="st0" points="0,0 21,0 21,15 0,15 					"/>
				</g>
			</mask>
			<path id="Fill-5" class="st2" d="M1.6,1.6h17.9v11.8l-17.9,0V1.6z M12,15h9V0H0v15h9H12z"/>
		</g>
	</g>
</g>
</svg>
