<svg width="101" height="61" viewBox="0 0 101 61" xmlns="http://www.w3.org/2000/svg" xmlns:xlink="http://www.w3.org/1999/xlink">
    <defs>
        <path id="a" d="M0 0h11.12v60.977H0z"/>
        <path id="c" d="M0 0h10.94v23.309H0z"/>
    </defs>
    <g fill="none" fill-rule="evenodd">
        <path fill="#E13111" d="m20.616 23.291.062 6.984 1.013 25.905h-.123L18.09 23.291h-6.691v37.686h4.468l-.076-6.984-.922-25.89h.138l3.43 32.874h6.7V23.29z"/>
        <g transform="translate(26.335)">
            <mask id="b" fill="#fff">
                <use xlink:href="#a"/>
            </mask>
            <path d="M6.564 54.313c0 .694-.044.903-.076 1.05a1.13 1.13 0 0 1-.156.372c-.07.1-.125.165-.21.235a.88.88 0 0 1-.338.169c-.12.028-.225.041-.49.041H4.6l.125-1.389V6.185L4.6 4.797h.694c.265 0 .37.012.49.041a.882.882 0 0 1 .339.168c.084.071.139.137.21.236.066.092.127.245.155.373.032.146.076.355.076 1.049v47.649zM5.95 0H0v60.977h5.95c2.97 0 5.17-2.15 5.17-4.95V4.95C11.12 2.15 8.92 0 5.95 0z" fill="#E13111" mask="url(#b)"/>
        </g>
        <g transform="translate(0 37.668)">
            <mask id="d" fill="#fff">
                <use xlink:href="#c"/>
            </mask>
            <path d="m4.533 16.48.868-12.628h.138l.867 12.629H4.533zM2.093 0 0 23.309h4.064L4.3 19.89H6.64l.235 3.419h4.064L8.846 0H2.092z" fill="#E13111" mask="url(#d)"/>
        </g>
        <path d="M42.28 53.806h2.353l.213 1.687h-2.785l.218-1.687zm-.107-11.85h2.553l2.63 18.79h-1.842L43.47 44.654h-.038l-2.02 16.094h-1.843l2.605-18.792zM49.93 60.702a2.255 2.255 0 0 1-1.049-.85c-.254-.384-.434-.873-.54-1.47-.106-.596-.158-1.312-.158-2.148v-9.766c0-.835.052-1.551.158-2.148.106-.596.286-1.086.54-1.47A2.256 2.256 0 0 1 49.93 42c.445-.183.998-.275 1.659-.275.558 0 1.045.073 1.46.218.415.145.759.37 1.03.677.27.307.472.697.603 1.17.132.473.201 1.037.21 1.694v3.336h-1.842v-3.324c0-.4-.037-.735-.108-1.003a1.865 1.865 0 0 0-.305-.658 1.118 1.118 0 0 0-.464-.365 1.575 1.575 0 0 0-.597-.108c-.195 0-.369.025-.521.076a1.137 1.137 0 0 0-.4.23c-.115.103-.206.23-.274.384-.067.153-.12.332-.158.537a5.902 5.902 0 0 0-.083.69c-.017.256-.025.541-.025.857v10.43c0 .307.008.59.025.85s.044.493.083.697c.038.205.09.384.158.537a1.104 1.104 0 0 0 .674.614c.152.051.326.077.52.077.22 0 .42-.036.598-.11.178-.071.332-.193.464-.363.13-.17.232-.392.305-.665.071-.273.108-.605.108-.997v-3.324h1.842v3.337c-.009.656-.078 1.22-.21 1.693-.131.473-.332.863-.603 1.17a2.4 2.4 0 0 1-1.03.678c-.415.144-.902.217-1.46.217-.661 0-1.214-.092-1.659-.275M58.542 53.806h2.354l.214 1.687h-2.78l.212-1.687zm-.106-11.85h2.553l2.63 18.79h-1.842l-2.045-16.093h-.038l-2.02 16.094H55.83l2.605-18.792zM68.016 59.098c.254 0 .48-.021.68-.064a1.338 1.338 0 0 0 .896-.614c.1-.162.183-.358.247-.588.063-.23.11-.494.14-.792.03-.299.044-.64.044-1.023v-9.345c0-.374-.015-.713-.044-1.016a4.773 4.773 0 0 0-.14-.799 2.104 2.104 0 0 0-.248-.581 1.299 1.299 0 0 0-.375-.384 1.609 1.609 0 0 0-.52-.217 2.985 2.985 0 0 0-.68-.07h-.864v15.493h.864zm-2.72-17.143h2.808c.466 0 .888.043 1.265.128.376.086.707.216.99.39.284.175.528.395.731.658.203.265.369.578.496.94s.217.774.273 1.234c.055.46.082.971.082 1.534v9.012c0 .562-.027 1.076-.082 1.54a5.728 5.728 0 0 1-.273 1.234 3.47 3.47 0 0 1-.496.94 2.66 2.66 0 0 1-.73.664 3.247 3.247 0 0 1-.985.39 5.719 5.719 0 0 1-1.27.128h-2.808V41.955zM74.101 41.955h5.641v1.7h-3.786v6.712h3.354v1.713h-3.354v6.967h3.799v1.7H74.1zM81.737 41.955h2.922l1.905 15.57h.026l1.931-15.57h2.871v18.792h-1.766v-6.174l.115-9.959h-.051l-2.097 16.133h-2.058L83.44 44.614h-.038l.114 9.959v6.174h-1.778zM96.08 54.087l-3.125-12.132h1.893l1.69 6.776.483 2.3h.038l.495-2.3 1.665-6.776h1.842l-3.113 12.132v6.66h-1.867z" fill="#E13111"/>
    </g>
</svg>
