<?xml version="1.0" encoding="UTF-8"?>
<svg width="402px" height="790px" viewBox="0 0 402 790" version="1.1" xmlns="http://www.w3.org/2000/svg" xmlns:xlink="http://www.w3.org/1999/xlink">
    <title>Group 22</title>
    <defs>
        <polygon id="path-1" points="0 0 41.99 0 41.99 116.2398 0 116.2398"></polygon>
    </defs>
    <g id="Page-2" stroke="none" stroke-width="1" fill="none" fill-rule="evenodd">
        <g id="Group-22" transform="translate(-0.000000, 0.000000)">
            <polygon id="Fill-1" fill="#FFFFFF" points="222.55 322.2999 233.4 598.0899 232.09 598.0899 194.83 247.9599 123.16 247.9599 123.16 649.1499 171.02 649.1499 170.2 574.8099 160.32 299.1799 161.81 299.1799 198.54 649.1499 270.32 649.1499 270.32 247.9599 221.88 247.9599"></polygon>
            <g id="Group-21">
                <path d="M352.39,578.21 C352.39,585.6 351.92,587.83 351.57,589.38 C351.27,590.74 350.61,592.36 349.9,593.35 C349.14,594.4 348.56,595.1 347.65,595.85 C346.75,596.6 345.4,597.31 344.02,597.64 C342.74,597.95 341.62,598.08 338.78,598.08 L331.35,598.08 L332.69,583.3 L332.69,65.85 L331.35,51.07 L338.78,51.07 C341.62,51.07 342.74,51.2 344.02,51.51 C345.4,51.84 346.75,52.55 347.65,53.3 C348.55,54.06 349.14,54.75 349.9,55.8 C350.61,56.79 351.26,58.41 351.57,59.77 C351.92,61.32 352.39,63.55 352.39,70.94 L352.39,578.21 Z M345.81,0 L282.08,0 L282.08,649.15 L345.81,649.15 C377.62,649.15 401.2,626.26 401.2,596.45 L401.2,52.7 C401.2,22.89 377.62,0 345.81,0 L345.81,0 Z" id="Fill-2" fill="#FFFFFF"></path>
                <path d="M48.56,576.46 L57.85,442.01 L59.32,442.01 L68.61,576.46 L48.56,576.46 Z M22.41,401.01 L0,649.15 L43.53,649.15 L46.05,612.75 L71.13,612.75 L73.65,649.15 L117.18,649.15 L94.75,401.01 L22.41,401.01 Z" id="Fill-4" fill="#FFFFFF"></path>
                <path d="M19.3735,745.4199 L33.4115,745.4199 L34.7875,756.2199 L18.0245,756.2199 L19.3735,745.4199 Z M17.8795,674.1899 L34.6295,674.1899 L50.7595,787.6299 L38.7895,787.6299 L26.4395,690.6999 L26.2095,690.6999 L14.0995,787.6299 L2.1395,787.6299 L17.8795,674.1899 Z" id="Fill-6" fill="#FFFFFF"></path>
                <path d="M126.7135,745.4199 L140.7515,745.4199 L142.1275,756.2199 L125.3645,756.2199 L126.7135,745.4199 Z M125.2195,674.1899 L141.9695,674.1899 L158.0995,787.6299 L146.1295,787.6299 L133.7795,690.6999 L133.5495,690.6999 L121.4395,787.6299 L109.4795,787.6299 L125.2195,674.1899 Z" id="Fill-8" fill="#FFFFFF"></path>
                <g id="Group-12" transform="translate(58.690000, 672.790000)">
                    <mask id="mask-2" fill="white">
                        <use xlink:href="#path-1"></use>
                    </mask>
                    <g id="Clip-11"></g>
                    <path d="M10.89,114.61 C8.11,113.53 5.92,111.81 4.33,109.44 C2.73,107.07 1.62,104.06 0.97,100.41 C0.32,96.76 0,92.36 0,87.21 L0,29.02 C0,23.88 0.32,19.48 0.97,15.82 C1.61,12.17 2.73,9.16 4.33,6.79 C5.92,4.43 8.12,2.7 10.93,1.62 C13.73,0.54 17.22,0 21.39,0 C24.84,0 27.86,0.44 30.46,1.31 C33.06,2.19 35.22,3.58 36.94,5.48 C38.66,7.39 39.92,9.8 40.72,12.74 C41.52,15.67 41.94,19.14 41.99,23.16 L41.99,43.07 L30.03,43.07 L30.03,23.16 C30.08,20.74 29.89,18.72 29.45,17.1 C29.01,15.48 28.4,14.18 27.6,13.2 C26.8,12.22 25.86,11.5 24.78,11.04 C23.7,10.58 22.52,10.35 21.23,10.35 C20.05,10.35 19.02,10.52 18.14,10.85 C17.26,11.19 16.47,11.63 15.75,12.2 C15.03,12.77 14.47,13.51 14.09,14.44 C13.7,15.37 13.4,16.45 13.16,17.68 C12.93,18.92 12.76,20.31 12.66,21.85 C12.56,23.39 12.5,25.12 12.5,27.02 L12.5,89.22 C12.5,91.07 12.55,92.78 12.66,94.35 C12.76,95.92 12.93,97.32 13.16,98.56 C13.39,99.79 13.7,100.88 14.09,101.8 C14.47,102.73 15.03,103.47 15.75,104.04 C16.47,104.61 17.27,105.05 18.14,105.39 C19.01,105.73 20.04,105.89 21.23,105.89 C22.52,105.89 23.7,105.66 24.78,105.2 C25.86,104.74 26.8,104.02 27.6,103.04 C28.4,102.06 29.01,100.75 29.45,99.1 C29.89,97.46 30.08,95.45 30.03,93.08 L30.03,73.17 L41.99,73.17 L41.99,93.08 C41.94,97.1 41.51,100.57 40.72,103.5 C39.92,106.43 38.66,108.85 36.94,110.76 C35.22,112.66 33.05,114.05 30.46,114.93 C27.86,115.8 24.84,116.24 21.39,116.24 C17.17,116.23 13.67,115.69 10.89,114.61" id="Fill-10" fill="#FFFFFF" mask="url(#mask-2)"></path>
                </g>
                <path d="M187.34,777.13 C188.78,777.13 190.1,776.99 191.32,776.71 C192.53,776.43 193.57,776 194.44,775.44 C195.32,774.87 196.06,774.1 196.68,773.12 C197.3,772.14 197.8,770.96 198.19,769.57 C198.57,768.18 198.86,766.6 199.04,764.83 C199.22,763.05 199.31,761.01 199.31,758.69 L199.31,703.05 C199.31,700.84 199.22,698.82 199.04,696.99 C198.86,695.16 198.58,693.57 198.19,692.2 C197.8,690.84 197.3,689.68 196.68,688.73 C196.07,687.78 195.32,687.02 194.44,686.45 C193.57,685.88 192.52,685.45 191.32,685.14 C190.11,684.83 188.78,684.68 187.34,684.68 L182.17,684.68 L182.17,777.13 L187.34,777.13 Z M169.98,674.19 L187.89,674.19 C190.77,674.19 193.38,674.45 195.72,674.96 C198.06,675.48 200.13,676.26 201.93,677.31 C203.73,678.36 205.25,679.69 206.48,681.28 C207.72,682.88 208.73,684.78 209.53,686.99 C210.33,689.2 210.89,691.72 211.23,694.55 C211.57,697.38 211.73,700.54 211.73,704.04 L211.73,757.75 C211.73,761.2 211.56,764.34 211.23,767.16 C210.89,769.99 210.33,772.5 209.53,774.69 C208.73,776.88 207.72,778.79 206.48,780.44 C205.25,782.08 203.73,783.42 201.93,784.45 C200.13,785.48 198.07,786.26 195.76,786.8 C193.45,787.34 190.82,787.61 187.89,787.61 L169.98,787.61 L169.98,674.19 Z" id="Fill-13" fill="#FFFFFF"></path>
                <polygon id="Fill-15" fill="#FFFFFF" points="227.78 674.19 263.28 674.19 263.28 685.15 239.97 685.15 239.97 724.66 260.42 724.66 260.42 735.62 239.97 735.62 239.97 776.67 263.35 776.67 263.35 787.63 227.77 787.63 227.77 674.19"></polygon>
                <polygon id="Fill-17" fill="#FFFFFF" points="278.17 674.19 297 674.19 308.42 767.18 308.57 767.18 320.07 674.19 338.59 674.19 338.59 787.63 327.17 787.63 327.17 750.74 327.86 690.78 327.55 690.78 314.89 787.63 301.93 787.63 289.2 690.78 288.97 690.78 289.82 750.74 289.82 787.63 278.17 787.63"></polygon>
                <polygon id="Fill-19" fill="#FFFFFF" points="369.62 747.7299 350.41 674.1899 362.68 674.1899 372.87 714.6999 375.8 728.6699 376.03 728.6699 379.04 714.6999 388.99 674.1899 400.95 674.1899 381.81 747.7299 381.81 787.6299 369.62 787.6299"></polygon>
            </g>
        </g>
    </g>
</svg>