<?xml version="1.0" encoding="UTF-8"?>
<svg width="73px" height="142px" viewBox="0 0 73 142" version="1.1" xmlns="http://www.w3.org/2000/svg" xmlns:xlink="http://www.w3.org/1999/xlink">
    <title>logo</title>
    <defs>
        <polygon id="path-1" points="0 0 21.4403743 0 21.4403743 116.828413 0 116.828413"></polygon>
        <polygon id="path-3" points="0 7.65822152e-15 21.0906039 7.65822152e-15 21.0906039 44.6582533 0 44.6582533"></polygon>
        <polygon id="path-5" points="0 1.5316443e-14 7.55591645 1.5316443e-14 7.55591645 20.9159955 0 20.9159955"></polygon>
    </defs>
    <g id="Page-2" stroke="none" stroke-width="1" fill="none" fill-rule="evenodd">
        <g id="Group" transform="translate(0.711575, 0.000000)">
            <polygon id="Fill-1" fill="#FFFFFF" points="39.9297081 58.1105576 41.8759208 107.750131 41.6408216 107.750131 34.9544634 44.7286528 22.0948767 44.7286528 22.0948767 116.941176 30.6817906 116.941176 30.5352795 103.559272 28.7635172 53.9477237 29.029963 53.9477237 35.6216 116.941176 48.5009488 116.941176 48.5009488 44.7286528 39.809092 44.7286528"></polygon>
            <g id="Group-4" transform="translate(50.772149, 0.000000)">
                <mask id="mask-2" fill="white">
                    <use xlink:href="#path-1"></use>
                </mask>
                <g id="Clip-3"></g>
                <path d="M12.6558525,104.060613 C12.6558525,105.390635 12.5710928,105.791145 12.5088901,106.070682 C12.4542064,106.316046 12.3366365,106.607885 12.2088134,106.785586 C12.0721043,106.974905 11.9675217,107.099979 11.8041543,107.235989 C11.6421539,107.371315 11.3994951,107.498439 11.1506844,107.558584 C10.9203294,107.613945 10.7186834,107.637866 10.207391,107.637866 L8.86969168,107.637866 L9.11029984,104.977139 L9.11029984,11.8510009 L8.86969168,9.19027363 L10.207391,9.19027363 C10.7186834,9.19027363 10.9203294,9.21419488 11.1506844,9.27023897 C11.3994951,9.32970038 11.6421539,9.45750824 11.8041543,9.59146728 C11.9675217,9.72816018 12.0721043,9.85323418 12.2088134,10.0425538 C12.3366365,10.2202546 12.4542064,10.512094 12.5088901,10.7574577 C12.5710928,11.0369947 12.6558525,11.4368214 12.6558525,12.7675268 L12.6558525,104.060613 Z M11.4719509,-0.000273385796 L0,-0.000273385796 L0,116.828413 L11.4719509,116.828413 C17.1973315,116.828413 21.4407844,112.709172 21.4407844,107.343293 L21.4407844,9.48484682 C21.4407844,4.11828364 17.1973315,-0.000273385796 11.4719509,-0.000273385796 L11.4719509,-0.000273385796 Z" id="Fill-2" fill="#FFFFFF" mask="url(#mask-2)"></path>
            </g>
            <g id="Group-7" transform="translate(0.000000, 72.170228)">
                <mask id="mask-4" fill="white">
                    <use xlink:href="#path-3"></use>
                </mask>
                <g id="Clip-6"></g>
                <path d="M8.74029644,31.5760595 L10.4129333,7.37936611 L10.6781491,7.37936611 L12.3507859,31.5760595 L8.74029644,31.5760595 Z M4.03408287,7.65822152e-15 L-0.000205063772,44.6582533 L7.83596521,44.6582533 L8.2884726,38.1079296 L12.8019262,38.1079296 L13.2551172,44.6582533 L21.0906039,44.6582533 L17.0549488,7.65822152e-15 L4.03408287,7.65822152e-15 Z" id="Fill-5" fill="#FFFFFF" mask="url(#mask-4)"></path>
            </g>
            <path d="M3.48063416,134.153076 L6.02240286,134.153076 L6.2582262,136.097532 L3.2577982,136.097532 L3.48063416,134.153076 Z M3.21806577,121.334016 L6.23181967,121.334016 L9.13483914,141.749784 L6.98235308,141.749784 L4.76014534,124.306403 L4.71844904,124.306403 L2.53725405,141.749784 L0.384084445,141.749784 L3.21806577,121.334016 Z" id="Fill-8" fill="#FFFFFF"></path>
            <g id="Group-12" transform="translate(10.565501, 121.084005)">
                <mask id="mask-6" fill="white">
                    <use xlink:href="#path-5"></use>
                </mask>
                <g id="Clip-11"></g>
                <path d="M1.95835902,20.6242245 C1.45868696,20.4294371 1.06496452,20.1198277 0.777875241,19.6940293 C0.490785961,19.2675475 0.289823464,18.7262436 0.17362066,18.0687508 C0.0574178561,17.4112579 0,16.619806 0,15.6943951 L0,5.22166871 C0,4.29625779 0.0574178561,3.50412245 0.17362066,2.84731307 C0.289823464,2.18982023 0.490785961,1.64783289 0.777875241,1.22203451 C1.06496452,0.796919597 1.4607376,0.485943253 1.96587803,0.291155873 C2.47033491,0.0970519577 3.09783005,1.5316443e-14 3.84767991,1.5316443e-14 C4.46765604,1.5316443e-14 5.01175858,0.0785984165 5.47930398,0.235795249 C5.94684938,0.393675547 6.335787,0.643823551 6.64611685,0.986239261 C6.95644669,1.32865497 7.18338393,1.76402185 7.32692857,2.29165644 C7.47047321,2.81929103 7.54703035,3.44397757 7.55591645,4.16639954 L7.55591645,7.74980386 L5.40343039,7.74980386 L5.40343039,4.16639954 C5.41231649,3.73103266 5.37745564,3.36742955 5.29884787,3.07627367 C5.22024009,2.78443434 5.10950565,2.55137295 4.96596101,2.37503911 C4.82173282,2.19938873 4.65289698,2.06953048 4.45876995,1.98614781 C4.26464291,1.90276514 4.05137659,1.86107381 3.82033807,1.86107381 C3.60707175,1.86107381 3.42183081,1.89114625 3.26461525,1.95129112 C3.10671614,2.011436 2.9631715,2.09208481 2.83398133,2.19392102 C2.70342406,2.29644069 2.6043099,2.43039973 2.53527177,2.59716507 C2.46555008,2.7639304 2.41018287,2.95803432 2.36848657,3.18016028 C2.32679026,3.40228624 2.29671424,3.65243424 2.27825851,3.93060429 C2.25911922,4.20809087 2.25023312,4.51906722 2.25023312,4.86148293 L2.25023312,16.0545809 C2.25023312,16.3881116 2.25911922,16.6956706 2.27825851,16.9786249 C2.29671424,17.2608957 2.32679026,17.5130941 2.36848657,17.7352201 C2.41018287,17.957346 2.46555008,18.1521334 2.53527177,18.3188988 C2.6043099,18.4856641 2.70342406,18.6196231 2.83398133,18.7214593 C2.9631715,18.8232956 3.10671614,18.9039444 3.26461525,18.9647727 C3.42183081,19.0249176 3.60707175,19.05499 3.82033807,19.05499 C4.05137659,19.05499 4.26464291,19.0132987 4.45876995,18.929916 C4.65289698,18.8465333 4.82173282,18.7173586 4.96596101,18.5410247 C5.10950565,18.3653743 5.22024009,18.1288956 5.29884787,17.8329555 C5.37745564,17.5363319 5.41231649,17.1754627 5.40343039,16.7489808 L5.40343039,13.1655765 L7.55591645,13.1655765 L7.55591645,16.7489808 C7.54703035,17.4720863 7.47047321,18.0960893 7.32692857,18.6244074 C7.18338393,19.152042 6.95644669,19.5874089 6.64611685,19.9298246 C6.335787,20.2722403 5.94684938,20.5223883 5.47930398,20.6795851 C5.01175858,20.8367819 4.46765604,20.9160638 3.84767991,20.9160638 C3.0882604,20.9160638 2.45871462,20.8183284 1.95835902,20.6242245" id="Fill-10" fill="#FFFFFF" mask="url(#mask-6)"></path>
            </g>
            <path d="M22.7919087,134.153076 L25.3432859,134.153076 L25.5797928,136.097532 L22.5697563,136.097532 L22.7919087,134.153076 Z M22.5389009,121.334016 L25.5533384,121.334016 L28.4563578,141.749784 L26.3031882,141.749784 L24.0809805,124.306403 L24.0392842,124.306403 L21.8587728,141.749784 L19.7056032,141.749784 L22.5389009,121.334016 Z" id="Fill-13" fill="#FFFFFF"></path>
            <path d="M33.7204132,139.861098 C33.9794771,139.861098 34.2180346,139.835126 34.4354022,139.78455 C34.6534534,139.73329 34.840745,139.657425 34.9979605,139.555589 C35.1558596,139.453753 35.2898346,139.31501 35.4005691,139.138676 C35.511987,138.963026 35.6022151,138.749785 35.6719368,138.499637 C35.7409749,138.250172 35.7922409,137.965851 35.8250511,137.645989 C35.8564942,137.326812 35.8735828,136.958424 35.8735828,136.542194 L35.8735828,126.528073 C35.8735828,126.130296 35.8564942,125.766693 35.8250511,125.437947 C35.7922409,125.109884 35.7409749,124.822829 35.6719368,124.576781 C35.6022151,124.331418 35.511987,124.123645 35.4005691,123.952095 C35.2898346,123.780545 35.1558596,123.644536 34.9979605,123.542016 C34.840745,123.44018 34.6534534,123.361582 34.4354022,123.306221 C34.2180346,123.25086 33.9794771,123.222838 33.7204132,123.222838 L32.7894237,123.222838 L32.7894237,139.861098 L33.7204132,139.861098 Z M30.5952413,121.333742 L33.8174767,121.333742 C34.3362881,121.333742 34.8058841,121.380218 35.227632,121.473169 C35.6486962,121.565437 36.0212287,121.706914 36.3452295,121.896917 C36.6692303,122.086237 36.9426486,122.324766 37.164801,122.611821 C37.387637,122.898876 37.5701438,123.241975 37.7136884,123.639752 C37.8572331,124.038211 37.9590814,124.491348 38.0192334,125.000529 C38.0793855,125.50971 38.1094615,126.07972 38.1094615,126.708507 L38.1094615,136.375429 C38.1094615,136.995331 38.0793855,137.560556 38.0192334,138.069054 C37.9590814,138.578918 37.8572331,139.030005 37.7136884,139.423681 C37.5701438,139.817356 37.387637,140.161822 37.164801,140.458446 C36.9426486,140.754386 36.6692303,140.994965 36.3452295,141.180868 C36.0212287,141.366087 35.6507469,141.50688 35.2344674,141.603932 C34.8175044,141.700984 34.3458577,141.750194 33.8174767,141.750194 L30.5952413,141.750194 L30.5952413,121.333742 Z" id="Fill-15" fill="#FFFFFF"></path>
            <polygon id="Fill-17" fill="#FFFFFF" points="40.9981265 121.333811 47.3879136 121.333811 47.3879136 123.306289 43.1923089 123.306289 43.1923089 130.417054 46.8738871 130.417054 46.8738871 132.389532 43.1923089 132.389532 43.1923089 139.777784 47.4015845 139.777784 47.4015845 141.750262 40.9981265 141.750262"></polygon>
            <polygon id="Fill-19" fill="#FFFFFF" points="50.0681655 121.333811 53.4571861 121.333811 55.5132922 138.069122 55.540634 138.069122 57.610411 121.333811 60.9447479 121.333811 60.9447479 141.750262 58.8886419 141.750262 58.8886419 135.111771 59.0137308 124.319867 58.95768 124.319867 56.6794215 141.750262 54.3464793 141.750262 52.0545499 124.319867 52.0128536 124.319867 52.1659679 135.111771 52.1659679 141.750262 50.0681655 141.750262"></polygon>
            <polygon id="Fill-21" fill="#FFFFFF" points="66.5279509 134.569921 63.0692086 121.333947 65.2777454 121.333947 67.1110156 128.625147 67.638713 131.139613 67.6804093 131.139613 68.2224612 128.625147 70.014035 121.333947 72.1672046 121.333947 68.7221333 134.569921 68.7221333 141.749715 66.5279509 141.749715"></polygon>
        </g>
    </g>
</svg>