<svg width="101" height="61" viewBox="0 0 101 61" xmlns="http://www.w3.org/2000/svg" xmlns:xlink="http://www.w3.org/1999/xlink">
    <defs>
        <path id="a" d="M0 0h11.114v61H0z"/>
        <path id="c" d="M0 0h10.933v23.318H0z"/>
    </defs>
    <g fill="none" fill-rule="evenodd">
        <path fill="#FFF" d="m20.603 23.3.063 6.986 1.012 25.915h-.123L18.08 23.3h-6.687V61h4.465l-.076-6.986-.921-25.9h.138L18.426 61h6.696V23.3z"/>
        <g transform="translate(26.319)">
            <mask id="b" fill="#fff">
                <use xlink:href="#a"/>
            </mask>
            <path d="M6.56 54.334c0 .694-.043.903-.076 1.049-.028.128-.09.28-.156.373-.07.1-.125.165-.209.236a.88.88 0 0 1-.339.168c-.12.029-.224.041-.49.041h-.692l.124-1.389V6.188l-.124-1.39h.693c.265 0 .37.013.49.042a.881.881 0 0 1 .338.168c.084.071.139.137.21.236.066.093.127.245.155.373.033.146.076.355.076 1.05v47.667zM5.946 0H0v61h5.946c2.968 0 5.168-2.15 5.168-4.953V4.952C11.114 2.151 8.914 0 5.946 0z" fill="#FFF" mask="url(#b)"/>
        </g>
        <g transform="translate(0 37.682)">
            <mask id="d" fill="#fff">
                <use xlink:href="#c"/>
            </mask>
            <path d="m4.53 16.487.868-12.634h.137l.867 12.634H4.531zM2.092 0 0 23.318h4.062l.235-3.42h2.34l.234 3.42h4.062L8.84 0H2.09z" fill="#FFF" mask="url(#d)"/>
        </g>
        <path d="M42.254 53.826h2.352l.213 1.688h-2.784l.219-1.688zm-.107-11.855H44.7l2.628 18.799h-1.841l-2.044-16.1h-.039l-2.018 16.1h-1.842l2.603-18.799zM49.9 60.725a2.254 2.254 0 0 1-1.048-.85c-.254-.384-.434-.874-.54-1.471-.106-.596-.158-1.313-.158-2.148v-9.77c0-.836.052-1.552.158-2.149.106-.597.286-1.087.54-1.47a2.255 2.255 0 0 1 1.047-.851c.445-.183.997-.275 1.658-.275.558 0 1.045.073 1.46.218.414.145.757.37 1.028.677.271.307.472.697.603 1.17.132.474.201 1.038.21 1.695v3.338h-1.841v-3.325c0-.4-.037-.736-.108-1.004a1.866 1.866 0 0 0-.305-.659 1.118 1.118 0 0 0-.463-.364 1.572 1.572 0 0 0-.597-.109 1.63 1.63 0 0 0-.52.077 1.136 1.136 0 0 0-.4.23c-.115.102-.206.23-.274.384-.068.153-.12.332-.159.537a5.91 5.91 0 0 0-.082.69c-.017.256-.026.542-.026.857v10.435c0 .307.009.59.026.85s.044.493.082.697c.039.205.091.384.16.537a1.104 1.104 0 0 0 .672.615c.153.05.326.076.52.076.22 0 .42-.036.598-.109.177-.072.332-.193.463-.364.131-.17.233-.392.305-.665.071-.273.108-.605.108-.997v-3.325h1.84v3.337c-.008.657-.077 1.222-.209 1.695-.131.473-.332.863-.603 1.17a2.398 2.398 0 0 1-1.028.678c-.415.144-.902.217-1.46.217-.66 0-1.213-.092-1.658-.275M58.507 53.826h2.352l.215 1.688h-2.778l.211-1.688zm-.106-11.855h2.552L63.58 60.77h-1.84l-2.045-16.1h-.038l-2.02 16.1h-1.84L58.4 41.97zM67.975 59.12c.253 0 .48-.021.679-.064a1.338 1.338 0 0 0 .895-.614c.102-.162.184-.358.248-.588.063-.23.11-.494.14-.793.029-.298.044-.64.044-1.023V46.69c0-.375-.015-.714-.045-1.016a4.78 4.78 0 0 0-.14-.8 2.106 2.106 0 0 0-.247-.582 1.299 1.299 0 0 0-.375-.383 1.607 1.607 0 0 0-.52-.218 2.98 2.98 0 0 0-.68-.07h-.863v15.5h.864zm-2.718-17.149h2.806c.466 0 .887.043 1.264.128.376.085.707.216.99.39.284.175.527.395.73.659.203.264.369.577.496.94.126.362.217.773.273 1.234.055.46.082.972.082 1.534v9.016c0 .563-.027 1.076-.082 1.54a5.735 5.735 0 0 1-.273 1.235 3.473 3.473 0 0 1-.496.94 2.66 2.66 0 0 1-.73.665 3.244 3.244 0 0 1-.984.39 5.71 5.71 0 0 1-1.27.128h-2.806V41.97zM74.057 41.971h5.637v1.701H75.91v6.714h3.353V52.1H75.91v6.969h3.797v1.7h-5.65zM81.687 41.971h2.92l1.905 15.576h.026l1.93-15.576h2.87V60.77h-1.766v-6.177l.115-9.962h-.051L87.54 60.77h-2.057L83.389 44.63h-.038l.114 9.962v6.177h-1.778zM96.023 54.107l-3.124-12.136h1.892l1.689 6.778.482 2.302H97l.495-2.302 1.664-6.778H101l-3.11 12.136v6.663h-1.867z" fill="#FFF"/>
    </g>
</svg>
