<?xml version="1.0" encoding="utf-8"?>
<!-- Generator: Adobe Illustrator 25.2.1, SVG Export Plug-In . SVG Version: 6.00 Build 0)  -->
<svg version="1.1" id="Layer_1" xmlns="http://www.w3.org/2000/svg" xmlns:xlink="http://www.w3.org/1999/xlink" x="0px" y="0px"
	 viewBox="0 0 173 253" style="enable-background:new 0 0 173 253;" xml:space="preserve">
<style type="text/css">
	.st0{filter:url(#Adobe_OpacityMaskFilter);}
	.st1{fill-rule:evenodd;clip-rule:evenodd;fill:#FFFFFF;}
	.st2{mask:url(#mask-2_1_);fill-rule:evenodd;clip-rule:evenodd;fill:#FFFFFF;}
	.st3{filter:url(#Adobe_OpacityMaskFilter_1_);}
	.st4{mask:url(#mask-4_1_);fill-rule:evenodd;clip-rule:evenodd;fill:#FFFFFF;}
	.st5{filter:url(#Adobe_OpacityMaskFilter_2_);}
	.st6{mask:url(#mask-6_1_);fill-rule:evenodd;clip-rule:evenodd;fill:#FFFFFF;}
	.st7{filter:url(#Adobe_OpacityMaskFilter_3_);}
	.st8{mask:url(#mask-8_1_);fill-rule:evenodd;clip-rule:evenodd;fill:#FFFFFF;}
	.st9{filter:url(#Adobe_OpacityMaskFilter_4_);}
	.st10{mask:url(#mask-8_2_);fill-rule:evenodd;clip-rule:evenodd;fill:#FFFFFF;}
</style>
<g id="Page-2">
	<g id="Group-13">
		<g id="Group-3" transform="translate(0.000000, 138.000000)">
			<g id="Clip-2">
			</g>
			<defs>
				<filter id="Adobe_OpacityMaskFilter" filterUnits="userSpaceOnUse" x="0" y="0" width="33" height="115">
					<feColorMatrix  type="matrix" values="1 0 0 0 0  0 1 0 0 0  0 0 1 0 0  0 0 0 1 0"/>
				</filter>
			</defs>
			<mask maskUnits="userSpaceOnUse" x="0" y="0" width="33" height="115" id="mask-2_1_">
				<g class="st0">
					<polygon id="path-1_1_" class="st1" points="0,0 33,0 33,115 0,115 					"/>
				</g>
			</mask>
			<path id="Fill-1" class="st2" d="M11,114.5c-1.6-0.3-3.1-0.8-4.3-1.4c-1.2-0.6-2.3-1.5-3.1-2.5c-0.9-1-1.6-2.2-2.1-3.6
				c-0.5-1.4-0.9-3-1.1-4.7C0.1,100.5,0,98.5,0,96.3V18.8c0-2.2,0.1-4.2,0.3-5.9c0.2-1.7,0.6-3.3,1.1-4.7C2,6.7,2.7,5.5,3.6,4.5
				c0.9-1,2-1.8,3.2-2.4C8,1.4,9.4,0.9,11.1,0.5C12.7,0.2,14.6,0,16.7,0c2.1,0,3.9,0.2,5.6,0.5c1.6,0.4,3.1,0.9,4.3,1.6
				c1.2,0.7,2.2,1.6,3,2.7c0.8,1.1,1.5,2.4,2,3.9c0.5,1.5,0.9,3.3,1.1,5.2c0.2,1.9,0.3,12.3,0.3,14.7v30.8H11.6v-9.9h9.9v-32
				c0-1,0-1.8-0.1-2.6c-0.1-0.8-0.2-1.4-0.3-1.9c-0.1-0.5-0.3-1-0.6-1.4c-0.3-0.4-0.6-0.8-1-1c-0.4-0.3-0.7-0.4-1.2-0.6
				c-0.4-0.1-0.9-0.2-1.5-0.2c-1,0-1.9,0.2-2.5,0.5c-0.6,0.4-1.1,0.9-1.5,1.6c-0.4,0.7-0.6,1.6-0.8,2.7c-0.2,1.1-0.3,2.4-0.3,3.8
				v78.1c0,1,0,1.9,0.1,2.7c0.1,0.8,0.2,1.6,0.3,2.2c0.2,0.6,0.4,1.1,0.6,1.6c0.3,0.4,0.6,0.8,1,1.2c0.4,0.3,0.8,0.6,1.3,0.7
				c0.5,0.2,1,0.2,1.7,0.2c0.8,0,1.6-0.1,2.2-0.4c0.6-0.3,1.1-0.7,1.4-1.2c0.3-0.5,0.6-1.1,0.8-1.8c0.2-0.7,0.3-1.6,0.3-2.5V68.2
				h11.5v30.9c0,2.7-0.3,5.1-1,7c-0.6,1.9-1.6,3.5-2.9,4.9c-1.3,1.3-3,2.3-5,3c-2,0.6-4.5,1-7.3,1C14.5,115,12.6,114.8,11,114.5"/>
		</g>
		<g id="Group-6" transform="translate(121.000000, 43.000000)">
			<g id="Clip-5">
			</g>
			<defs>
				<filter id="Adobe_OpacityMaskFilter_1_" filterUnits="userSpaceOnUse" x="0" y="0" width="33" height="210">
					<feColorMatrix  type="matrix" values="1 0 0 0 0  0 1 0 0 0  0 0 1 0 0  0 0 0 1 0"/>
				</filter>
			</defs>
			<mask maskUnits="userSpaceOnUse" x="0" y="0" width="33" height="210" id="mask-4_1_">
				<g class="st3">
					<polygon id="path-3_1_" class="st1" points="0,0 33,0 33,210 0,210 					"/>
				</g>
			</mask>
			<path id="Fill-4" class="st4" d="M11,209.5c-1.6-0.3-3.1-0.8-4.3-1.4c-1.2-0.6-2.3-1.5-3.1-2.5c-0.9-1-1.6-2.2-2.1-3.6
				c-0.5-1.4-0.9-3-1.1-4.8c-0.2-1.8-0.3-3.8-0.3-6V18.8c0-2.2,0.1-4.2,0.3-6c0.2-1.7,0.6-3.3,1.1-4.8C2,6.7,2.7,5.5,3.6,4.5
				c0.9-1,2-1.8,3.2-2.5C8,1.4,9.4,0.9,11.1,0.5C12.7,0.2,14.6,0,16.7,0c2.1,0,3.9,0.2,5.6,0.5c1.6,0.4,3.1,0.9,4.3,1.6
				c1.2,0.7,2.2,1.6,3,2.7c0.8,1.1,1.5,2.4,2,3.9c0.5,1.5,0.9,3.3,1.1,5.2C32.9,15.9,33,83.6,33,86v14.1H11.6v-9.9h9.9V17.6
				c0-1,0-1.8-0.1-2.6c-0.1-0.8-0.2-1.4-0.3-1.9c-0.1-0.5-0.3-1-0.6-1.4c-0.3-0.4-0.6-0.8-1-1c-0.4-0.3-0.7-0.4-1.2-0.6
				c-0.4-0.1-0.9-0.2-1.5-0.2c-1,0-1.9,0.2-2.5,0.5c-0.6,0.4-1.1,0.9-1.5,1.6c-0.4,0.7-0.6,1.6-0.8,2.7c-0.2,1.1-0.3,2.4-0.3,3.8
				v173c0,1,0,1.9,0.1,2.7c0.1,0.8,0.2,1.6,0.3,2.2c0.2,0.6,0.4,1.1,0.6,1.6c0.3,0.4,0.6,0.8,1,1.2c0.4,0.3,0.8,0.6,1.3,0.7
				c0.5,0.2,1,0.2,1.7,0.2c0.8,0,1.6-0.1,2.2-0.4c0.6-0.3,1.1-0.7,1.4-1.2c0.3-0.5,0.6-1.1,0.8-1.8c0.2-0.7,0.3-1.6,0.3-2.5v-66.6
				h11.5v66.6c0,2.8-0.3,5.1-1,7c-0.6,1.9-1.6,3.6-2.9,4.9c-1.3,1.3-3,2.3-5,3c-2,0.6-4.5,1-7.3,1C14.5,210,12.6,209.8,11,209.5"/>
		</g>
		<g id="Group-9" transform="translate(80.000000, 75.000000)">
			<g id="Clip-8">
			</g>
			<defs>
				<filter id="Adobe_OpacityMaskFilter_2_" filterUnits="userSpaceOnUse" x="0" y="0" width="33" height="178">
					<feColorMatrix  type="matrix" values="1 0 0 0 0  0 1 0 0 0  0 0 1 0 0  0 0 0 1 0"/>
				</filter>
			</defs>
			<mask maskUnits="userSpaceOnUse" x="0" y="0" width="33" height="178" id="mask-6_1_">
				<g class="st5">
					<polygon id="path-5_1_" class="st1" points="0,0 33,0 33,178 0,178 					"/>
				</g>
			</mask>
			<path id="Fill-7" class="st6" d="M11.1,177.5c-1.6-0.3-3.1-0.8-4.3-1.5c-1.3-0.6-2.3-1.5-3.2-2.5c-0.9-1-1.6-2.2-2.1-3.6
				c-0.6-1.4-0.9-3-1.1-4.8c-0.2-1.8-0.3-3.8-0.3-6V19c0-3.3,0.3-6.1,0.8-8.5c0.5-2.4,1.5-4.3,2.8-5.9C5,3.1,6.7,1.9,8.8,1.2
				C11,0.4,13.6,0,16.8,0c2.9,0,5.4,0.3,7.4,1c2,0.6,3.7,1.7,5,3.1c1.3,1.4,2.3,3.1,2.9,5.3c0.6,2.1,0.9,4.7,0.8,7.7v56.3H21.3V17
				c0-1.2-0.1-2.2-0.2-3.1c-0.2-0.9-0.4-1.6-0.8-2.1c-0.4-0.5-0.8-0.9-1.4-1.2c-0.6-0.3-1.3-0.4-2.2-0.4c-0.9,0-1.7,0.2-2.4,0.6
				c-0.7,0.4-1.2,0.9-1.5,1.6c-0.3,0.7-0.6,1.6-0.7,2.6C12,15.9,12,17.2,12,18.7v140.8c0,1,0,1.8,0,2.6c0,0.8,0.1,1.5,0.3,2.1
				c0.2,0.6,0.3,1.2,0.5,1.6c0.2,0.5,0.5,0.8,0.8,1.1c0.4,0.3,0.8,0.5,1.3,0.7c0.5,0.2,1.1,0.3,1.7,0.3c0.9,0,1.7-0.1,2.2-0.4
				c0.6-0.3,1-0.7,1.4-1.3c0.4-0.6,0.6-1.3,0.8-2.1c0.2-0.8,0.2-1.9,0.2-3.1v-59.5H33v59.5c0.1,3-0.2,5.5-0.8,7.6
				c-0.6,2.1-1.6,3.9-3,5.3c-1.4,1.4-3,2.4-5.1,3.1c-2,0.6-4.5,0.9-7.3,0.9C14.6,178,12.7,177.8,11.1,177.5"/>
		</g>
		<g id="Clip-11">
		</g>
		<defs>
			<filter id="Adobe_OpacityMaskFilter_3_" filterUnits="userSpaceOnUse" x="161" y="0" width="12" height="252">
				<feColorMatrix  type="matrix" values="1 0 0 0 0  0 1 0 0 0  0 0 1 0 0  0 0 0 1 0"/>
			</filter>
		</defs>
		<mask maskUnits="userSpaceOnUse" x="161" y="0" width="12" height="252" id="mask-8_1_">
			<g class="st7">
				<polygon id="path-7_1_" class="st1" points="0,253 173,253 173,0 0,0 				"/>
			</g>
		</mask>
		<polygon id="Fill-10" class="st8" points="161,252 173,252 173,0 161,0 		"/>
		<defs>
			<filter id="Adobe_OpacityMaskFilter_4_" filterUnits="userSpaceOnUse" x="36" y="120" width="40" height="132">
				<feColorMatrix  type="matrix" values="1 0 0 0 0  0 1 0 0 0  0 0 1 0 0  0 0 0 1 0"/>
			</filter>
		</defs>
		<mask maskUnits="userSpaceOnUse" x="36" y="120" width="40" height="132" id="mask-8_2_">
			<g class="st9">
				<polygon id="path-7_2_" class="st1" points="0,253 173,253 173,0 0,0 				"/>
			</g>
		</mask>
		<polygon id="Fill-12" class="st10" points="48.2,184.5 36.7,120 48.8,120 56.5,172.2 64.2,120 75.3,120 63.7,183.1 76,252 
			63.7,252 55.7,195.7 47.3,252 36,252 		"/>
	</g>
</g>
</svg>
