<?xml version="1.0" encoding="utf-8"?>
<!-- Generator: Adobe Illustrator 25.2.1, SVG Export Plug-In . SVG Version: 6.00 Build 0)  -->
<svg version="1.1" id="Layer_1" xmlns="http://www.w3.org/2000/svg" xmlns:xlink="http://www.w3.org/1999/xlink" x="0px" y="0px"
	 viewBox="0 0 96 92" style="enable-background:new 0 0 96 92;" xml:space="preserve">
<style type="text/css">
	.st0{fill-rule:evenodd;clip-rule:evenodd;fill:#FFFFFF;}
	.st1{filter:url(#Adobe_OpacityMaskFilter);}
	.st2{mask:url(#mask-2_1_);fill-rule:evenodd;clip-rule:evenodd;fill:#FFFFFF;}
	.st3{filter:url(#Adobe_OpacityMaskFilter_1_);}
	.st4{mask:url(#mask-2_2_);fill-rule:evenodd;clip-rule:evenodd;fill:#FFFFFF;}
	.st5{filter:url(#Adobe_OpacityMaskFilter_2_);}
	.st6{mask:url(#mask-2_3_);fill-rule:evenodd;clip-rule:evenodd;fill:#FFFFFF;}
</style>
<g id="Page-2">
	<g id="Group-11">
		<path id="Fill-1" class="st0" d="M19,9c0,5,4,9,9,9s9-4,9-9s-4-9-9-9S19,4,19,9"/>
		<path id="Fill-3" class="st0" d="M28,0.2c-4.8,0-8.8,3.9-8.8,8.8s3.9,8.8,8.8,8.8s8.8-3.9,8.8-8.8S32.8,0.2,28,0.2 M28,18
			c-5,0-9-4-9-9s4-9,9-9s9,4,9,9S33,18,28,18"/>
		<path id="Fill-5" class="st0" d="M51.7,56c-10.8-5.4-18.8-11.7-23.8-18.9C23.8,31,23.1,26.3,23,25l18.6-1.4c0-0.4-0.1-0.5-0.1-0.6
			c0,0.1,1.8,8,18.5,16.3L51.7,56z"/>
		<g id="Clip-8">
		</g>
		<defs>
			<filter id="Adobe_OpacityMaskFilter" filterUnits="userSpaceOnUse" x="45" y="47" width="13" height="45">
				<feColorMatrix  type="matrix" values="1 0 0 0 0  0 1 0 0 0  0 0 1 0 0  0 0 0 1 0"/>
			</filter>
		</defs>
		<mask maskUnits="userSpaceOnUse" x="45" y="47" width="13" height="45" id="mask-2_1_">
			<g class="st1">
				<polygon id="path-1_1_" class="st0" points="0,92 96,92 96,0 0,0 				"/>
			</g>
		</mask>
		<polygon id="Fill-7" class="st2" points="45,92 58,92 58,47 45,47 		"/>
		<defs>
			<filter id="Adobe_OpacityMaskFilter_1_" filterUnits="userSpaceOnUse" x="45" y="23" width="51" height="28">
				<feColorMatrix  type="matrix" values="1 0 0 0 0  0 1 0 0 0  0 0 1 0 0  0 0 0 1 0"/>
			</filter>
		</defs>
		<mask maskUnits="userSpaceOnUse" x="45" y="23" width="51" height="28" id="mask-2_2_">
			<g class="st3">
				<polygon id="path-1_2_" class="st0" points="0,92 96,92 96,0 0,0 				"/>
			</g>
		</mask>
		<polygon id="Fill-9" class="st4" points="48.9,51 45,39.3 92.1,23 96,34.7 		"/>
		<defs>
			<filter id="Adobe_OpacityMaskFilter_2_" filterUnits="userSpaceOnUse" x="5" y="8" width="65" height="44">
				<feColorMatrix  type="matrix" values="1 0 0 0 0  0 1 0 0 0  0 0 1 0 0  0 0 0 1 0"/>
			</filter>
		</defs>
		<mask maskUnits="userSpaceOnUse" x="5" y="8" width="65" height="44" id="mask-2_3_">
			<g class="st5">
				<polygon id="path-1_3_" class="st0" points="0,92 96,92 96,0 0,0 				"/>
			</g>
		</mask>
		<path id="Fill-10" class="st6" d="M24.2,52l-13.9-7.6c-3.7-2-5.8-6-5.3-10.2c0.5-4.1,3.4-7.5,7.4-8.5L66.4,8L70,18.9L18.6,35.8
			l11.2,6.1L24.2,52z"/>
	</g>
</g>
</svg>
